<svg width="74" height="74" viewBox="0 0 74 74" fill="none" xmlns="http://www.w3.org/2000/svg">
<path d="M37 0C16.5698 0 0 16.5668 0 37C0 53.3478 10.6005 67.2167 25.3049 72.1099C27.1518 72.4522 27.75 71.3052 27.75 70.3308V63.4427C17.4578 65.6812 15.3149 59.0767 15.3149 59.0767C13.6314 54.8001 11.2048 53.6623 11.2048 53.6623C7.84708 51.3653 11.4607 51.4146 11.4607 51.4146C15.1762 51.6736 17.131 55.2287 17.131 55.2287C20.4302 60.8835 25.7859 59.2493 27.898 58.3028C28.2279 55.9132 29.1868 54.279 30.2475 53.3571C22.0304 52.4167 13.3909 49.2439 13.3909 35.0698C13.3909 31.0276 14.837 27.7284 17.2019 25.1384C16.8196 24.2042 15.5523 20.4394 17.5627 15.3458C17.5627 15.3458 20.6707 14.3529 27.7407 19.1383C30.6915 18.3181 33.855 17.908 37 17.8926C40.145 17.908 43.3116 18.3181 46.2685 19.1383C53.3324 14.3529 56.4342 15.3458 56.4342 15.3458C58.4477 20.4425 57.1804 24.2073 56.7981 25.1384C59.1722 27.7284 60.606 31.0307 60.606 35.0698C60.606 49.2809 51.9511 52.4105 43.7124 53.3263C45.0382 54.4733 46.25 56.7241 46.25 60.1774V70.3308C46.25 71.3144 46.842 72.4707 48.7197 72.1068C63.4118 67.2074 74 53.3417 74 37C74 16.5668 57.4332 0 37 0Z" fill="#FFFFFF"/>
</svg>
