<svg width="173" height="35" viewBox="0 0 173 35" fill="none" xmlns="http://www.w3.org/2000/svg">
<path d="M9.944 27.504C7.448 27.504 5.348 26.952 3.644 25.848C1.94 24.72 0.74 23.196 0.044 21.276L4.292 18.792C5.276 21.36 7.208 22.644 10.088 22.644C11.48 22.644 12.5 22.392 13.148 21.888C13.796 21.384 14.12 20.748 14.12 19.98C14.12 19.092 13.724 18.408 12.932 17.928C12.14 17.424 10.724 16.884 8.684 16.308C7.556 15.972 6.596 15.636 5.804 15.3C5.036 14.964 4.256 14.52 3.464 13.968C2.696 13.392 2.108 12.672 1.7 11.808C1.292 10.944 1.088 9.936 1.088 8.784C1.088 6.504 1.892 4.692 3.5 3.348C5.132 1.98 7.088 1.296 9.368 1.296C11.408 1.296 13.196 1.8 14.732 2.808C16.292 3.792 17.504 5.172 18.368 6.948L14.192 9.36C13.184 7.2 11.576 6.12 9.368 6.12C8.336 6.12 7.52 6.36 6.92 6.84C6.344 7.296 6.056 7.896 6.056 8.64C6.056 9.432 6.38 10.08 7.028 10.584C7.7 11.064 8.972 11.592 10.844 12.168C11.612 12.408 12.188 12.6 12.572 12.744C12.98 12.864 13.52 13.068 14.192 13.356C14.888 13.62 15.416 13.872 15.776 14.112C16.16 14.352 16.592 14.676 17.072 15.084C17.552 15.492 17.912 15.912 18.152 16.344C18.416 16.776 18.632 17.304 18.8 17.928C18.992 18.528 19.088 19.188 19.088 19.908C19.088 22.236 18.236 24.084 16.532 25.452C14.852 26.82 12.656 27.504 9.944 27.504ZM24.4163 6.84C23.6483 6.84 22.9763 6.564 22.4003 6.012C21.8483 5.436 21.5723 4.764 21.5723 3.996C21.5723 3.228 21.8483 2.556 22.4003 1.98C22.9763 1.404 23.6483 1.116 24.4163 1.116C25.2083 1.116 25.8803 1.404 26.4323 1.98C27.0083 2.556 27.2963 3.228 27.2963 3.996C27.2963 4.764 27.0083 5.436 26.4323 6.012C25.8803 6.564 25.2083 6.84 24.4163 6.84ZM22.1123 27V9H26.7563V27H22.1123ZM50.9148 8.496C52.9788 8.496 54.6228 9.168 55.8468 10.512C57.0948 11.856 57.7188 13.656 57.7188 15.912V27H53.0748V16.236C53.0748 15.156 52.8108 14.316 52.2828 13.716C51.7548 13.116 51.0108 12.816 50.0508 12.816C48.9948 12.816 48.1668 13.164 47.5668 13.86C46.9908 14.556 46.7028 15.564 46.7028 16.884V27H42.0588V16.236C42.0588 15.156 41.7948 14.316 41.2668 13.716C40.7388 13.116 39.9948 12.816 39.0348 12.816C38.0028 12.816 37.1748 13.164 36.5508 13.86C35.9508 14.556 35.6508 15.564 35.6508 16.884V27H31.0068V9H35.6508V10.908C36.7308 9.3 38.3988 8.496 40.6548 8.496C42.8628 8.496 44.4948 9.36 45.5508 11.088C46.7508 9.36 48.5388 8.496 50.9148 8.496ZM72.1391 8.496C74.5631 8.496 76.6271 9.42 78.3311 11.268C80.0591 13.092 80.9231 15.336 80.9231 18C80.9231 20.664 80.0591 22.92 78.3311 24.768C76.6271 26.592 74.5631 27.504 72.1391 27.504C69.6191 27.504 67.6751 26.628 66.3071 24.876V34.2H61.6631V9H66.3071V11.124C67.6751 9.372 69.6191 8.496 72.1391 8.496ZM67.7111 21.672C68.6471 22.608 69.8351 23.076 71.2751 23.076C72.7151 23.076 73.9031 22.608 74.8391 21.672C75.7991 20.712 76.2791 19.488 76.2791 18C76.2791 16.512 75.7991 15.3 74.8391 14.364C73.9031 13.404 72.7151 12.924 71.2751 12.924C69.8351 12.924 68.6471 13.404 67.7111 14.364C66.7751 15.3 66.3071 16.512 66.3071 18C66.3071 19.488 66.7751 20.712 67.7111 21.672ZM84.1982 27V0.719999H88.8422V27H84.1982ZM97.0168 19.908C97.6408 22.164 99.3328 23.292 102.093 23.292C103.869 23.292 105.213 22.692 106.125 21.492L109.869 23.652C108.093 26.22 105.477 27.504 102.021 27.504C99.0448 27.504 96.6568 26.604 94.8568 24.804C93.0568 23.004 92.1567 20.736 92.1567 18C92.1567 15.288 93.0448 13.032 94.8208 11.232C96.5968 9.408 98.8768 8.496 101.661 8.496C104.301 8.496 106.473 9.408 108.177 11.232C109.905 13.056 110.769 15.312 110.769 18C110.769 18.6 110.709 19.236 110.589 19.908H97.0168ZM96.9448 16.308H106.125C105.861 15.084 105.309 14.172 104.469 13.572C103.653 12.972 102.717 12.672 101.661 12.672C100.413 12.672 99.3808 12.996 98.5648 13.644C97.7488 14.268 97.2088 15.156 96.9448 16.308ZM119.195 22.248H129.815V27H114.227V1.8H129.635V6.552H119.195V11.916H128.735V16.596H119.195V22.248ZM143.109 8.496C145.077 8.496 146.697 9.156 147.969 10.476C149.265 11.796 149.913 13.62 149.913 15.948V27H145.269V16.524C145.269 15.324 144.945 14.412 144.297 13.788C143.649 13.14 142.785 12.816 141.705 12.816C140.505 12.816 139.545 13.188 138.825 13.932C138.105 14.676 137.745 15.792 137.745 17.28V27H133.101V9H137.745V11.016C138.873 9.336 140.661 8.496 143.109 8.496ZM167.666 9H172.202V26.136C172.202 28.92 171.278 31.044 169.43 32.508C167.606 33.972 165.398 34.704 162.806 34.704C160.862 34.704 159.146 34.332 157.658 33.588C156.194 32.844 155.066 31.752 154.274 30.312L158.234 28.044C159.146 29.724 160.718 30.564 162.95 30.564C164.414 30.564 165.566 30.18 166.406 29.412C167.246 28.644 167.666 27.552 167.666 26.136V24.192C166.298 26.016 164.378 26.928 161.906 26.928C159.362 26.928 157.226 26.04 155.498 24.264C153.794 22.464 152.942 20.28 152.942 17.712C152.942 15.168 153.806 12.996 155.534 11.196C157.262 9.396 159.386 8.496 161.906 8.496C164.378 8.496 166.298 9.408 167.666 11.232V9ZM158.99 21.276C159.95 22.188 161.162 22.644 162.626 22.644C164.09 22.644 165.29 22.188 166.226 21.276C167.186 20.34 167.666 19.152 167.666 17.712C167.666 16.296 167.186 15.132 166.226 14.22C165.29 13.284 164.09 12.816 162.626 12.816C161.162 12.816 159.95 13.284 158.99 14.22C158.054 15.132 157.586 16.296 157.586 17.712C157.586 19.152 158.054 20.34 158.99 21.276Z" fill="#FFFFFF"/>
</svg>
